# Created by Kenney (www.kenney.nl)

mtllib grenade-b.mtl

g grenade-b

v 0.045 0.1558846 1.804779E-16 1 1 1
v 0.03181981 0.1558846 -0.03181981 1 1 1
v 0.03181981 0.1558846 0.03181981 1 1 1
v 1.804779E-16 0.1558846 0.045 1 1 1
v -1.804779E-16 0.1558846 -0.045 1 1 1
v -0.03181981 0.1558846 0.03181981 1 1 1
v -0.03181981 0.1558846 -0.03181981 1 1 1
v -0.045 0.1558846 1.804779E-16 1 1 1
v 0.045 0.1858846 1.804779E-16 1 1 1
v 0.03181981 0.1858846 0.03181981 1 1 1
v 0.03181981 0.1858846 -0.03181981 1 1 1
v -1.804779E-16 0.1858846 -0.045 1 1 1
v 1.804779E-16 0.1858846 0.045 1 1 1
v -0.03181981 0.1858846 0.03181981 1 1 1
v -0.03181981 0.1858846 -0.03181981 1 1 1
v -0.045 0.1858846 1.804779E-16 1 1 1
v 0.01575 0.03990699 -0.09353205 1 1 1
v 0.01575 0.04508337 -0.1128506 1 1 1
v -0.01575 0.03990699 -0.09353205 1 1 1
v -0.01575 0.04508337 -0.1128506 1 1 1
v -0.025 0.1706537 -0.07920408 1 1 1
v 0.025 0.1706537 -0.07920408 1 1 1
v -0.025 0.180313 -0.0766159 1 1 1
v 0.025 0.180313 -0.0766159 1 1 1
v 0.025 0.1654773 -0.05988557 1 1 1
v -0.025 0.1654773 -0.05988557 1 1 1
v 0.025 0.187384 -0.06436844 1 1 1
v 0.025 0.1666858 0.01287857 1 1 1
v -0.025 0.187384 -0.06436844 1 1 1
v -0.025 0.1666858 0.01287857 1 1 1
v 0.025 0.1473672 0.007702179 1 1 1
v -0.025 0.1473672 0.007702179 1 1 1
v 0.02240265 0.2110503 0 1 1 1
v 0.01584107 0.2110503 0.01584107 1 1 1
v 0.01584107 0.2110503 -0.01584107 1 1 1
v 6.163506E-16 0.2110503 -0.02240265 1 1 1
v 6.163506E-16 0.2110503 0.02240265 1 1 1
v -0.01584107 0.2110503 -0.01584107 1 1 1
v -0.01584107 0.2110503 0.01584107 1 1 1
v -0.02240265 0.2110503 0 1 1 1
v 0.03181981 0 0.03181981 1 1 1
v 0 0 0.045 1 1 1
v 0.05511352 0.03294229 0.05511352 1 1 1
v 0 0.03294229 0.07794229 1 1 1
v 0.05511352 0.1229423 -0.05511352 1 1 1
v 0.07794229 0.1229423 0 1 1 1
v 0.045 0.1558846 0 1 1 1
v -3.609557E-16 0.03294229 -0.07794229 1 1 1
v 0.05511352 0.03294229 -0.05511352 1 1 1
v -3.609557E-16 0.07794229 -0.09 1 1 1
v 0.06363961 0.07794229 -0.06363961 1 1 1
v 0.09 0.07794229 0 1 1 1
v 0.07794229 0.03294229 0 1 1 1
v 0.06363961 0.07794229 0.06363961 1 1 1
v -0.09 0.07794229 0 1 1 1
v -0.07794229 0.1229423 0 1 1 1
v -0.06363961 0.07794229 0.06363961 1 1 1
v -0.05511352 0.1229423 0.05511352 1 1 1
v -0.03181981 0 -0.03181981 1 1 1
v -3.609557E-16 0 -0.045 1 1 1
v -0.05511352 0.03294229 -0.05511352 1 1 1
v 0 0.07794229 0.09 1 1 1
v 0.05511352 0.1229423 0.05511352 1 1 1
v 0 0.1229423 0.07794229 1 1 1
v 0 0.1558846 0.045 1 1 1
v 0.03181981 0 -0.03181981 1 1 1
v 0.045 0 0 1 1 1
v -3.609557E-16 0.1229423 -0.07794229 1 1 1
v -3.609557E-16 0.1558846 -0.045 1 1 1
v -0.06363961 0.07794229 -0.06363961 1 1 1
v -0.07794229 0.03294229 0 1 1 1
v -0.05511352 0.03294229 0.05511352 1 1 1
v -0.05511352 0.1229423 -0.05511352 1 1 1
v -0.045 0.1558846 0 1 1 1
v -0.045 0 0 1 1 1
v -0.03181981 0 0.03181981 1 1 1
v 0.02987021 0.1858846 0 1 1 1
v 0.02112143 0.1858846 0.02112143 1 1 1
v 0 0.1858846 0.02987021 1 1 1
v -0.02112143 0.1858846 0.02112143 1 1 1
v 0.02112143 0.1858846 -0.02112143 1 1 1
v -0.02112143 0.1858846 -0.02112143 1 1 1
v -0.02987021 0.1858846 0 1 1 1
v 0 0.1858846 -0.02987021 1 1 1

vn 0 -1 0
vn 0 1 0
vn -0.3826834 0 -0.9238795
vn -0.9238795 0 -0.3826834
vn -0.9238795 0 0.3826834
vn -0.3826834 0 0.9238795
vn 0.3826834 0 0.9238795
vn 0.9238795 0 0.3826834
vn 0.9238795 0 -0.3826834
vn 0.3826834 0 -0.9238795
vn 0 -0.9659258 -0.258819
vn 0 0.258819 -0.9659258
vn 0 0.6087614 -0.7933533
vn 0.9993693 -0.03429963 -0.00919056
vn 0.9974782 -0.06855601 -0.01836953
vn 0.9997198 -0.02286482 -0.006126611
vn 0 -0.258819 0.9659258
vn 0 0.9914448 -0.1305262
vn 0 0.9659258 0.258819
vn 1 0 0
vn -0.9974782 -0.06855601 -0.01836953
vn -0.9993693 -0.03429963 -0.00919056
vn -0.9997198 -0.02286482 -0.006126611
vn -1 0 0
vn 0 0.9999999 0
vn 0.3238398 -0.8889632 0.3238398
vn 0 -0.8889632 0.4579785
vn 0.6224765 -0.4743901 0.6224765
vn 0 -0.4743902 0.8803147
vn 0.6224765 0.4743901 -0.6224765
vn 0.8803147 0.4743902 0
vn 0.3238398 0.8889632 -0.3238398
vn 0.4579785 0.8889632 0
vn 0 -0.4743902 -0.8803147
vn 0.6224765 -0.4743901 -0.6224765
vn 0 0 -1
vn 0.7071068 0 -0.7071068
vn 0.8803147 -0.4743902 0
vn 0.7071068 0 0.7071068
vn -0.8803147 0.4743902 0
vn -0.7071068 0 0.7071068
vn -0.6224765 0.4743901 0.6224765
vn -0.3238398 -0.8889632 -0.3238398
vn 0 -0.8889632 -0.4579785
vn -0.6224765 -0.4743901 -0.6224765
vn 0 0 1
vn 0.6224765 0.4743901 0.6224765
vn 0 0.4743902 0.8803147
vn 0.3238398 0.8889632 0.3238398
vn 0 0.8889632 0.4579785
vn 0.3238398 -0.8889632 -0.3238398
vn 0.4579785 -0.8889632 0
vn 0 0.4743902 -0.8803147
vn 0 0.8889632 -0.4579785
vn -0.7071068 0 -0.7071068
vn -0.8803147 -0.4743902 0
vn -0.6224765 -0.4743901 0.6224765
vn -0.6224765 0.4743901 -0.6224765
vn -0.3238398 0.8889632 -0.3238398
vn -0.4579785 0.8889632 0
vn -0.3238398 0.8889632 0.3238398
vn -0.4579785 -0.8889632 0
vn -0.3238398 -0.8889632 0.3238398
vn 0.9586833 0.2844752 0
vn 0.6778915 0.2844753 0.6778915
vn 0 0.2844752 0.9586833
vn -0.6778915 0.2844753 0.6778915
vn 0.6778915 0.2844753 -0.6778915
vn -0.6778915 0.2844753 -0.6778915
vn -0.9586833 0.2844752 0
vn 0 0.2844752 -0.9586833

vt 0.34375 0.025
vt 0.34375 0.225
vt 0.34375 0.1983333
vt 0.34375 0.2116666
vt 0.34375 0.175
vt 0.21875 0.025
vt 0.21875 0.06726497
vt 0.21875 0.182735
vt 0.21875 0.225
vt 0.21875 0.125
vt 0.46875 0.175
vt 0.46875 0.075

usemtl colormap

f 3/1/1 2/1/1 1/1/1
f 2/1/1 3/1/1 4/1/1
f 2/1/1 4/1/1 5/1/1
f 5/1/1 4/1/1 6/1/1
f 5/1/1 6/1/1 7/1/1
f 7/1/1 6/1/1 8/1/1
f 11/2/2 10/2/2 9/2/2
f 10/2/2 11/2/2 12/2/2
f 10/2/2 12/2/2 13/2/2
f 13/2/2 12/2/2 14/2/2
f 14/2/2 12/2/2 15/2/2
f 14/2/2 15/2/2 16/2/2
f 15/2/3 5/1/3 7/1/3
f 5/1/3 15/2/3 12/2/3
f 8/1/4 15/2/4 7/1/4
f 15/2/4 8/1/4 16/2/4
f 6/1/5 16/2/5 8/1/5
f 16/2/5 6/1/5 14/2/5
f 13/2/6 6/1/6 4/1/6
f 6/1/6 13/2/6 14/2/6
f 10/2/7 4/1/7 3/1/7
f 4/1/7 10/2/7 13/2/7
f 10/2/8 1/1/8 9/2/8
f 1/1/8 10/2/8 3/1/8
f 9/2/9 2/1/9 11/2/9
f 2/1/9 9/2/9 1/1/9
f 12/2/10 2/1/10 5/1/10
f 2/1/10 12/2/10 11/2/10
f 19/1/11 18/1/11 17/1/11
f 18/1/11 19/1/11 20/1/11
f 21/3/12 18/1/12 20/1/12
f 18/1/12 21/3/12 22/3/12
f 22/3/12 21/3/12 23/4/13
f 22/3/12 23/4/13 24/4/13
f 25/3/16 18/1/15 22/3/14
f 18/1/15 25/3/16 17/1/15
f 25/3/17 19/1/17 17/1/17
f 19/1/17 25/3/17 26/3/17
f 29/2/18 28/2/19 27/2/18
f 28/2/19 29/2/18 30/2/19
f 27/2/20 22/3/14 24/4/20
f 22/3/14 27/2/20 25/3/16
f 25/3/16 27/2/20 28/2/20
f 25/3/16 28/2/20 31/3/20
f 28/2/17 32/3/17 31/3/17
f 32/3/17 28/2/17 30/2/17
f 32/3/11 25/3/11 31/3/11
f 25/3/11 32/3/11 26/3/11
f 23/4/13 27/2/18 24/4/13
f 27/2/18 23/4/13 29/2/18
f 19/1/21 21/3/22 20/1/21
f 21/3/22 19/1/21 26/3/23
f 26/3/23 23/4/24 21/3/22
f 23/4/24 26/3/23 29/2/24
f 29/2/24 26/3/23 30/2/24
f 30/2/24 26/3/23 32/3/24
f 35/5/25 34/5/25 33/5/25
f 34/5/25 35/5/25 36/5/25
f 34/5/25 36/5/25 37/5/25
f 37/5/25 36/5/25 38/5/25
f 37/5/25 38/5/25 39/5/25
f 39/5/25 38/5/25 40/5/25
f 43/7/28 42/6/27 41/6/26
f 42/6/27 43/7/28 44/7/29
f 2/9/32 46/8/31 45/8/30
f 46/8/31 2/9/32 47/9/33
f 50/10/36 49/7/35 48/7/34
f 49/7/35 50/10/36 51/10/37
f 54/10/39 53/7/38 52/10/20
f 53/7/38 54/10/39 43/7/28
f 45/8/30 52/10/20 51/10/37
f 52/10/20 45/8/30 46/8/31
f 57/10/41 56/8/40 55/10/24
f 56/8/40 57/10/41 58/8/42
f 61/7/45 60/6/44 59/6/43
f 60/6/44 61/7/45 48/7/34
f 54/10/39 44/7/29 43/7/28
f 44/7/29 54/10/39 62/10/46
f 3/9/49 64/8/48 63/8/47
f 64/8/48 3/9/49 65/9/50
f 48/7/34 66/6/51 60/6/44
f 66/6/51 48/7/34 49/7/35
f 43/7/28 67/6/52 53/7/38
f 67/6/52 43/7/28 41/6/26
f 69/9/54 45/8/30 68/8/53
f 45/8/30 69/9/54 2/9/32
f 61/7/45 55/10/24 70/10/55
f 55/10/24 61/7/45 71/7/56
f 62/10/46 72/7/57 44/7/29
f 72/7/57 62/10/46 57/10/41
f 56/8/40 7/9/59 73/8/58
f 7/9/59 56/8/40 74/9/60
f 65/9/50 58/8/42 64/8/48
f 58/8/42 65/9/50 6/9/61
f 63/8/47 62/10/46 54/10/39
f 62/10/46 63/8/47 64/8/48
f 68/8/53 51/10/37 50/10/36
f 51/10/37 68/8/53 45/8/30
f 64/8/48 57/10/41 62/10/46
f 57/10/41 64/8/48 58/8/42
f 58/8/42 74/9/60 56/8/40
f 74/9/60 58/8/42 6/9/61
f 55/10/24 73/8/58 70/10/55
f 73/8/58 55/10/24 56/8/40
f 7/9/59 68/8/53 73/8/58
f 68/8/53 7/9/59 69/9/54
f 59/6/43 71/7/56 61/7/45
f 71/7/56 59/6/43 75/6/62
f 53/7/38 66/6/51 49/7/35
f 66/6/51 53/7/38 67/6/52
f 52/10/20 49/7/35 51/10/37
f 49/7/35 52/10/20 53/7/38
f 41/6/26 66/6/51 67/6/52
f 66/6/51 41/6/26 42/6/27
f 66/6/51 42/6/27 60/6/44
f 60/6/44 42/6/27 76/6/63
f 60/6/44 76/6/63 59/6/43
f 59/6/43 76/6/63 75/6/62
f 63/8/47 52/10/20 46/8/31
f 52/10/20 63/8/47 54/10/39
f 73/8/58 50/10/36 70/10/55
f 50/10/36 73/8/58 68/8/53
f 3/9/49 46/8/31 47/9/33
f 46/8/31 3/9/49 63/8/47
f 72/7/57 55/10/24 71/7/56
f 55/10/24 72/7/57 57/10/41
f 76/6/63 71/7/56 75/6/62
f 71/7/56 76/6/63 72/7/57
f 44/7/29 76/6/63 42/6/27
f 76/6/63 44/7/29 72/7/57
f 2/9/32 3/9/49 47/9/33
f 3/9/49 2/9/32 69/9/54
f 3/9/49 69/9/54 65/9/50
f 65/9/50 69/9/54 6/9/61
f 6/9/61 69/9/54 7/9/59
f 6/9/61 7/9/59 74/9/60
f 70/10/55 48/7/34 61/7/45
f 48/7/34 70/10/55 50/10/36
f 34/11/65 77/12/64 33/11/64
f 77/12/64 34/11/65 78/12/65
f 34/11/65 79/12/66 78/12/65
f 79/12/66 34/11/65 37/11/66
f 37/11/66 80/12/67 79/12/66
f 80/12/67 37/11/66 39/11/67
f 35/11/68 77/12/64 81/12/68
f 77/12/64 35/11/68 33/11/64
f 83/12/70 38/11/69 82/12/69
f 38/11/69 83/12/70 40/11/70
f 36/11/71 81/12/68 84/12/71
f 81/12/68 36/11/71 35/11/68
f 80/12/67 40/11/70 83/12/70
f 40/11/70 80/12/67 39/11/67
f 38/11/69 84/12/71 82/12/69
f 84/12/71 38/11/69 36/11/71

g grenade-b




usemtl colormap

f 3/1/1 2/1/1 1/1/1
f 2/1/1 3/1/1 4/1/1
f 2/1/1 4/1/1 5/1/1
f 5/1/1 4/1/1 6/1/1
f 5/1/1 6/1/1 7/1/1
f 7/1/1 6/1/1 8/1/1
f 11/2/2 10/2/2 9/2/2
f 10/2/2 11/2/2 12/2/2
f 10/2/2 12/2/2 13/2/2
f 13/2/2 12/2/2 14/2/2
f 14/2/2 12/2/2 15/2/2
f 14/2/2 15/2/2 16/2/2
f 15/2/3 5/1/3 7/1/3
f 5/1/3 15/2/3 12/2/3
f 8/1/4 15/2/4 7/1/4
f 15/2/4 8/1/4 16/2/4
f 6/1/5 16/2/5 8/1/5
f 16/2/5 6/1/5 14/2/5
f 13/2/6 6/1/6 4/1/6
f 6/1/6 13/2/6 14/2/6
f 10/2/7 4/1/7 3/1/7
f 4/1/7 10/2/7 13/2/7
f 10/2/8 1/1/8 9/2/8
f 1/1/8 10/2/8 3/1/8
f 9/2/9 2/1/9 11/2/9
f 2/1/9 9/2/9 1/1/9
f 12/2/10 2/1/10 5/1/10
f 2/1/10 12/2/10 11/2/10
f 19/1/11 18/1/11 17/1/11
f 18/1/11 19/1/11 20/1/11
f 21/3/12 18/1/12 20/1/12
f 18/1/12 21/3/12 22/3/12
f 22/3/12 21/3/12 23/4/13
f 22/3/12 23/4/13 24/4/13
f 25/3/16 18/1/15 22/3/14
f 18/1/15 25/3/16 17/1/15
f 25/3/17 19/1/17 17/1/17
f 19/1/17 25/3/17 26/3/17
f 29/2/18 28/2/19 27/2/18
f 28/2/19 29/2/18 30/2/19
f 27/2/20 22/3/14 24/4/20
f 22/3/14 27/2/20 25/3/16
f 25/3/16 27/2/20 28/2/20
f 25/3/16 28/2/20 31/3/20
f 28/2/17 32/3/17 31/3/17
f 32/3/17 28/2/17 30/2/17
f 32/3/11 25/3/11 31/3/11
f 25/3/11 32/3/11 26/3/11
f 23/4/13 27/2/18 24/4/13
f 27/2/18 23/4/13 29/2/18
f 19/1/21 21/3/22 20/1/21
f 21/3/22 19/1/21 26/3/23
f 26/3/23 23/4/24 21/3/22
f 23/4/24 26/3/23 29/2/24
f 29/2/24 26/3/23 30/2/24
f 30/2/24 26/3/23 32/3/24
f 35/5/25 34/5/25 33/5/25
f 34/5/25 35/5/25 36/5/25
f 34/5/25 36/5/25 37/5/25
f 37/5/25 36/5/25 38/5/25
f 37/5/25 38/5/25 39/5/25
f 39/5/25 38/5/25 40/5/25
f 43/7/28 42/6/27 41/6/26
f 42/6/27 43/7/28 44/7/29
f 2/9/32 46/8/31 45/8/30
f 46/8/31 2/9/32 47/9/33
f 50/10/36 49/7/35 48/7/34
f 49/7/35 50/10/36 51/10/37
f 54/10/39 53/7/38 52/10/20
f 53/7/38 54/10/39 43/7/28
f 45/8/30 52/10/20 51/10/37
f 52/10/20 45/8/30 46/8/31
f 57/10/41 56/8/40 55/10/24
f 56/8/40 57/10/41 58/8/42
f 61/7/45 60/6/44 59/6/43
f 60/6/44 61/7/45 48/7/34
f 54/10/39 44/7/29 43/7/28
f 44/7/29 54/10/39 62/10/46
f 3/9/49 64/8/48 63/8/47
f 64/8/48 3/9/49 65/9/50
f 48/7/34 66/6/51 60/6/44
f 66/6/51 48/7/34 49/7/35
f 43/7/28 67/6/52 53/7/38
f 67/6/52 43/7/28 41/6/26
f 69/9/54 45/8/30 68/8/53
f 45/8/30 69/9/54 2/9/32
f 61/7/45 55/10/24 70/10/55
f 55/10/24 61/7/45 71/7/56
f 62/10/46 72/7/57 44/7/29
f 72/7/57 62/10/46 57/10/41
f 56/8/40 7/9/59 73/8/58
f 7/9/59 56/8/40 74/9/60
f 65/9/50 58/8/42 64/8/48
f 58/8/42 65/9/50 6/9/61
f 63/8/47 62/10/46 54/10/39
f 62/10/46 63/8/47 64/8/48
f 68/8/53 51/10/37 50/10/36
f 51/10/37 68/8/53 45/8/30
f 64/8/48 57/10/41 62/10/46
f 57/10/41 64/8/48 58/8/42
f 58/8/42 74/9/60 56/8/40
f 74/9/60 58/8/42 6/9/61
f 55/10/24 73/8/58 70/10/55
f 73/8/58 55/10/24 56/8/40
f 7/9/59 68/8/53 73/8/58
f 68/8/53 7/9/59 69/9/54
f 59/6/43 71/7/56 61/7/45
f 71/7/56 59/6/43 75/6/62
f 53/7/38 66/6/51 49/7/35
f 66/6/51 53/7/38 67/6/52
f 52/10/20 49/7/35 51/10/37
f 49/7/35 52/10/20 53/7/38
f 41/6/26 66/6/51 67/6/52
f 66/6/51 41/6/26 42/6/27
f 66/6/51 42/6/27 60/6/44
f 60/6/44 42/6/27 76/6/63
f 60/6/44 76/6/63 59/6/43
f 59/6/43 76/6/63 75/6/62
f 63/8/47 52/10/20 46/8/31
f 52/10/20 63/8/47 54/10/39
f 73/8/58 50/10/36 70/10/55
f 50/10/36 73/8/58 68/8/53
f 3/9/49 46/8/31 47/9/33
f 46/8/31 3/9/49 63/8/47
f 72/7/57 55/10/24 71/7/56
f 55/10/24 72/7/57 57/10/41
f 76/6/63 71/7/56 75/6/62
f 71/7/56 76/6/63 72/7/57
f 44/7/29 76/6/63 42/6/27
f 76/6/63 44/7/29 72/7/57
f 2/9/32 3/9/49 47/9/33
f 3/9/49 2/9/32 69/9/54
f 3/9/49 69/9/54 65/9/50
f 65/9/50 69/9/54 6/9/61
f 6/9/61 69/9/54 7/9/59
f 6/9/61 7/9/59 74/9/60
f 70/10/55 48/7/34 61/7/45
f 48/7/34 70/10/55 50/10/36
f 34/11/65 77/12/64 33/11/64
f 77/12/64 34/11/65 78/12/65
f 34/11/65 79/12/66 78/12/65
f 79/12/66 34/11/65 37/11/66
f 37/11/66 80/12/67 79/12/66
f 80/12/67 37/11/66 39/11/67
f 35/11/68 77/12/64 81/12/68
f 77/12/64 35/11/68 33/11/64
f 83/12/70 38/11/69 82/12/69
f 38/11/69 83/12/70 40/11/70
f 36/11/71 81/12/68 84/12/71
f 81/12/68 36/11/71 35/11/68
f 80/12/67 40/11/70 83/12/70
f 40/11/70 80/12/67 39/11/67
f 38/11/69 84/12/71 82/12/69
f 84/12/71 38/11/69 36/11/71

