# Created by Kenney (www.kenney.nl)

mtllib silencer-larger.mtl

g silencer-larger

v 0.0573144 -4.760104E-15 -0.11 1 1 1
v 0.0405274 -0.0405274 -0.11 1 1 1
v 0.0405274 0.0405274 -0.11 1 1 1
v -3.609557E-16 0.0573144 -0.11 1 1 1
v -3.609557E-16 -0.0573144 -0.11 1 1 1
v -0.0405274 0.0405274 -0.11 1 1 1
v -0.0405274 -0.0405274 -0.11 1 1 1
v -0.0573144 -4.760104E-15 -0.11 1 1 1
v -3.609557E-16 0.05731439 -0.19 1 1 1
v -0.0405274 0.04052739 -0.19 1 1 1
v -0.0573144 -9.536747E-09 -0.19 1 1 1
v 0.0405274 0.04052739 -0.19 1 1 1
v 0.0573144 -9.536747E-09 -0.19 1 1 1
v 0.0405274 -0.04052741 -0.19 1 1 1
v -3.609557E-16 -0.05731441 -0.19 1 1 1
v -0.0405274 -0.04052741 -0.19 1 1 1
v 0.02328256 0 -0.06 1 1 1
v 0.01646326 -0.01646326 -0.06 1 1 1
v 0.02328256 0 0 1 1 1
v 0.01646326 -0.01646326 0 1 1 1
v -0.01646326 -0.01646326 -0.06 1 1 1
v -0.02328256 0 -0.06 1 1 1
v -0.01646326 -0.01646326 0 1 1 1
v -0.02328256 0 0 1 1 1
v 0 -0.02328256 0 1 1 1
v 0 -0.02328256 -0.06 1 1 1
v 0 0.02328256 -0.06 1 1 1
v 0 0.02328256 0 1 1 1
v -0.01646326 0.01646325 -0.06 1 1 1
v -0.01646326 0.01646325 0 1 1 1
v 0.01646326 0.01646325 -0.06 1 1 1
v 0.01646326 0.01646325 0 1 1 1
v -3.609557E-16 -0.049335 -0.283 1 1 1
v 0.03488511 -0.03488511 -0.283 1 1 1
v -0.03488511 -0.03488511 -0.283 1 1 1
v -3.609557E-16 -0.02677495 -0.283 1 1 1
v -0.01893275 -0.01893275 -0.283 1 1 1
v 0.01893275 -0.01893275 -0.283 1 1 1
v -0.049335 0 -0.283 1 1 1
v -0.02677495 0 -0.283 1 1 1
v 0.049335 0 -0.283 1 1 1
v 0.02677495 0 -0.283 1 1 1
v 0.01893275 0.01893274 -0.283 1 1 1
v -0.03488511 0.03488511 -0.283 1 1 1
v 0.03488511 0.03488511 -0.283 1 1 1
v -0.01893275 0.01893274 -0.283 1 1 1
v -3.609557E-16 0.02677495 -0.283 1 1 1
v -3.609557E-16 0.049335 -0.283 1 1 1
v 0 -0.0429 -0.06 1 1 1
v -0.03033488 -0.03033488 -0.06 1 1 1
v 0.03033488 -0.03033488 -0.06 1 1 1
v 0.0429 0 -0.06 1 1 1
v -0.0429 0 -0.06 1 1 1
v 0.03033488 0.03033488 -0.06 1 1 1
v -0.03033488 0.03033488 -0.06 1 1 1
v 0 0.0429 -0.06 1 1 1
v -3.609557E-16 -0.02677495 -0.237 1 1 1
v -0.01893275 -0.01893275 -0.237 1 1 1
v -0.02677495 0 -0.237 1 1 1
v 0.01893275 0.01893274 -0.237 1 1 1
v -3.609557E-16 0.02677495 -0.237 1 1 1
v 0.01893275 -0.01893275 -0.237 1 1 1
v 0.02677495 0 -0.237 1 1 1
v -0.01893275 0.01893274 -0.237 1 1 1

vn 0 1.192093E-07 1
vn 0 1 -1.192093E-07
vn -0.7071068 0.7071068 -8.42937E-08
vn -1 0 0
vn 0.7071068 0.7071068 -8.42937E-08
vn 1 0 0
vn 0.7071068 -0.7071068 8.42937E-08
vn 0 -1 1.192093E-07
vn -0.7071068 -0.7071068 8.42937E-08
vn 0 -1.192093E-07 -1
vn 0.7071068 -0.7071068 0
vn -0.7071068 -0.7071068 0
vn 0 -1 0
vn 0 1 0
vn -0.7071068 0.7071068 0
vn 0.7071068 0.7071068 0
vn 0 0 -1
vn 0 0 1
vn 0 0.9995839 0.0288445
vn -0.7068126 0.7068126 0.0288445
vn 0.7068126 0.7068126 0.0288445
vn 0.9995839 0 0.0288445
vn 0.7068126 -0.7068126 0.0288445
vn 0 -0.9995839 0.0288445
vn -0.7068126 -0.7068126 0.0288445
vn -0.9995839 0 0.0288445

vt 0.34375 0.025
vt 0.34375 0.225
vt 0.34375 0.1180232
vt 0.34375 0.08232475
vt 0.34375 0.06753794
vt 0.34375 0.1685086
vt 0.34375 0.1537218
vt 0.34375 0.04237927
vt 0.34375 0.05996515
vt 0.34375 0.07696997
vt 0.34375 0.1590765
vt 0.34375 0.1936672
vt 0.34375 0.1760814
vt 0.21875 0.025
vt 0.21875 0.05224588
vt 0.21875 0.06753794
vt 0.21875 0.08232475
vt 0.21875 0.1180232
vt 0.21875 0.1537218
vt 0.21875 0.1838006
vt 0.21875 0.1685086
vt 0.21875 0.2110465
vt 0.21875 0.05996515
vt 0.21875 0.07696997
vt 0.21875 0.1590765
vt 0.21875 0.1760814
vt 0.21875 0.225
vt 0.21875 0.1936672
vt 0.21875 0.04237927

usemtl colormap

f 3/1/1 2/1/1 1/1/1
f 2/1/1 3/1/1 4/1/1
f 2/1/1 4/1/1 5/1/1
f 5/1/1 4/1/1 6/1/1
f 5/1/1 6/1/1 7/1/1
f 7/1/1 6/1/1 8/1/1
f 9/2/2 6/1/3 4/1/2
f 6/1/3 9/2/2 10/2/3
f 6/1/3 11/2/4 8/1/4
f 11/2/4 6/1/3 10/2/3
f 3/1/5 9/2/2 4/1/2
f 9/2/2 3/1/5 12/2/5
f 13/2/6 3/1/5 1/1/6
f 3/1/5 13/2/6 12/2/5
f 14/2/7 1/1/6 2/1/7
f 1/1/6 14/2/7 13/2/6
f 5/1/8 14/2/7 2/1/7
f 14/2/7 5/1/8 15/2/8
f 16/2/9 5/1/8 7/1/9
f 5/1/8 16/2/9 15/2/8
f 8/1/4 16/2/9 7/1/9
f 16/2/9 8/1/4 11/2/4
f 14/2/10 12/2/10 13/2/10
f 12/2/10 14/2/10 15/2/10
f 12/2/10 15/2/10 9/2/10
f 9/2/10 15/2/10 16/2/10
f 9/2/10 16/2/10 10/2/10
f 10/2/10 16/2/10 11/2/10
f 19/3/6 18/4/11 17/3/6
f 18/4/11 19/3/6 20/4/11
f 23/4/12 22/3/4 21/4/12
f 22/3/4 23/4/12 24/3/4
f 23/4/12 26/5/13 25/5/13
f 26/5/13 23/4/12 21/4/12
f 29/7/15 28/6/14 27/6/14
f 28/6/14 29/7/15 30/7/15
f 24/3/4 29/7/15 22/3/4
f 29/7/15 24/3/4 30/7/15
f 25/5/13 18/4/11 20/4/11
f 18/4/11 25/5/13 26/5/13
f 27/6/14 32/7/16 31/7/16
f 32/7/16 27/6/14 28/6/14
f 32/7/16 17/3/6 31/7/16
f 17/3/6 32/7/16 19/3/6
f 35/8/17 34/8/17 33/1/17
f 34/8/17 35/8/17 36/9/17
f 36/9/17 35/8/17 37/10/17
f 38/10/17 34/8/17 36/9/17
f 37/10/17 35/8/17 39/3/17
f 37/10/17 39/3/17 40/3/17
f 34/8/17 38/10/17 41/3/17
f 41/3/17 38/10/17 42/3/17
f 41/3/17 42/3/17 43/11/17
f 40/3/17 39/3/17 44/12/17
f 41/3/17 43/11/17 45/12/17
f 40/3/17 44/12/17 46/11/17
f 45/12/17 43/11/17 47/13/17
f 46/11/17 44/12/17 47/13/17
f 45/12/17 47/13/17 44/12/17
f 45/12/17 44/12/17 48/2/17
f 20/4/18 23/4/18 25/5/18
f 23/4/18 20/4/18 19/3/18
f 23/4/18 19/3/18 24/3/18
f 24/3/18 19/3/18 32/7/18
f 24/3/18 32/7/18 30/7/18
f 30/7/18 32/7/18 28/6/18
f 51/15/18 50/15/18 49/14/18
f 50/15/18 51/15/18 26/16/18
f 26/16/18 51/15/18 18/17/18
f 21/17/18 50/15/18 26/16/18
f 18/17/18 51/15/18 52/18/18
f 18/17/18 52/18/18 17/18/18
f 50/15/18 21/17/18 53/18/18
f 53/18/18 21/17/18 22/18/18
f 53/18/18 22/18/18 29/19/18
f 17/18/18 52/18/18 54/20/18
f 53/18/18 29/19/18 55/20/18
f 17/18/18 54/20/18 31/19/18
f 55/20/18 29/19/18 27/21/18
f 31/19/18 54/20/18 27/21/18
f 55/20/18 27/21/18 54/20/18
f 55/20/18 54/20/18 56/22/18
f 37/24/16 57/23/14 36/23/14
f 57/23/14 37/24/16 58/24/16
f 59/18/6 37/24/16 40/18/6
f 37/24/16 59/18/6 58/24/16
f 61/26/13 43/25/12 60/25/12
f 43/25/12 61/26/13 47/26/13
f 62/24/15 42/18/4 38/24/15
f 42/18/4 62/24/15 63/18/4
f 58/24/17 62/24/17 57/23/17
f 62/24/17 58/24/17 59/18/17
f 62/24/17 59/18/17 63/18/17
f 63/18/17 59/18/17 64/25/17
f 63/18/17 64/25/17 60/25/17
f 60/25/17 64/25/17 61/26/17
f 36/23/14 62/24/15 38/24/15
f 62/24/15 36/23/14 57/23/14
f 64/25/11 47/26/13 61/26/13
f 47/26/13 64/25/11 46/25/11
f 63/18/4 43/25/12 42/18/4
f 43/25/12 63/18/4 60/25/12
f 64/25/11 40/18/6 46/25/11
f 40/18/6 64/25/11 59/18/6
f 48/27/19 55/20/20 56/22/19
f 55/20/20 48/27/19 44/28/20
f 48/27/19 54/20/21 45/28/21
f 54/20/21 48/27/19 56/22/19
f 54/20/21 41/18/22 45/28/21
f 41/18/22 54/20/21 52/18/22
f 51/15/23 33/14/24 34/29/23
f 33/14/24 51/15/23 49/14/24
f 52/18/22 34/29/23 41/18/22
f 34/29/23 52/18/22 51/15/23
f 50/15/25 39/18/26 35/29/25
f 39/18/26 50/15/25 53/18/26
f 53/18/26 44/28/20 39/18/26
f 44/28/20 53/18/26 55/20/20
f 50/15/25 33/14/24 49/14/24
f 33/14/24 50/15/25 35/29/25

g silencer-larger




usemtl colormap

f 3/1/1 2/1/1 1/1/1
f 2/1/1 3/1/1 4/1/1
f 2/1/1 4/1/1 5/1/1
f 5/1/1 4/1/1 6/1/1
f 5/1/1 6/1/1 7/1/1
f 7/1/1 6/1/1 8/1/1
f 9/2/2 6/1/3 4/1/2
f 6/1/3 9/2/2 10/2/3
f 6/1/3 11/2/4 8/1/4
f 11/2/4 6/1/3 10/2/3
f 3/1/5 9/2/2 4/1/2
f 9/2/2 3/1/5 12/2/5
f 13/2/6 3/1/5 1/1/6
f 3/1/5 13/2/6 12/2/5
f 14/2/7 1/1/6 2/1/7
f 1/1/6 14/2/7 13/2/6
f 5/1/8 14/2/7 2/1/7
f 14/2/7 5/1/8 15/2/8
f 16/2/9 5/1/8 7/1/9
f 5/1/8 16/2/9 15/2/8
f 8/1/4 16/2/9 7/1/9
f 16/2/9 8/1/4 11/2/4
f 14/2/10 12/2/10 13/2/10
f 12/2/10 14/2/10 15/2/10
f 12/2/10 15/2/10 9/2/10
f 9/2/10 15/2/10 16/2/10
f 9/2/10 16/2/10 10/2/10
f 10/2/10 16/2/10 11/2/10
f 19/3/6 18/4/11 17/3/6
f 18/4/11 19/3/6 20/4/11
f 23/4/12 22/3/4 21/4/12
f 22/3/4 23/4/12 24/3/4
f 23/4/12 26/5/13 25/5/13
f 26/5/13 23/4/12 21/4/12
f 29/7/15 28/6/14 27/6/14
f 28/6/14 29/7/15 30/7/15
f 24/3/4 29/7/15 22/3/4
f 29/7/15 24/3/4 30/7/15
f 25/5/13 18/4/11 20/4/11
f 18/4/11 25/5/13 26/5/13
f 27/6/14 32/7/16 31/7/16
f 32/7/16 27/6/14 28/6/14
f 32/7/16 17/3/6 31/7/16
f 17/3/6 32/7/16 19/3/6
f 35/8/17 34/8/17 33/1/17
f 34/8/17 35/8/17 36/9/17
f 36/9/17 35/8/17 37/10/17
f 38/10/17 34/8/17 36/9/17
f 37/10/17 35/8/17 39/3/17
f 37/10/17 39/3/17 40/3/17
f 34/8/17 38/10/17 41/3/17
f 41/3/17 38/10/17 42/3/17
f 41/3/17 42/3/17 43/11/17
f 40/3/17 39/3/17 44/12/17
f 41/3/17 43/11/17 45/12/17
f 40/3/17 44/12/17 46/11/17
f 45/12/17 43/11/17 47/13/17
f 46/11/17 44/12/17 47/13/17
f 45/12/17 47/13/17 44/12/17
f 45/12/17 44/12/17 48/2/17
f 20/4/18 23/4/18 25/5/18
f 23/4/18 20/4/18 19/3/18
f 23/4/18 19/3/18 24/3/18
f 24/3/18 19/3/18 32/7/18
f 24/3/18 32/7/18 30/7/18
f 30/7/18 32/7/18 28/6/18
f 51/15/18 50/15/18 49/14/18
f 50/15/18 51/15/18 26/16/18
f 26/16/18 51/15/18 18/17/18
f 21/17/18 50/15/18 26/16/18
f 18/17/18 51/15/18 52/18/18
f 18/17/18 52/18/18 17/18/18
f 50/15/18 21/17/18 53/18/18
f 53/18/18 21/17/18 22/18/18
f 53/18/18 22/18/18 29/19/18
f 17/18/18 52/18/18 54/20/18
f 53/18/18 29/19/18 55/20/18
f 17/18/18 54/20/18 31/19/18
f 55/20/18 29/19/18 27/21/18
f 31/19/18 54/20/18 27/21/18
f 55/20/18 27/21/18 54/20/18
f 55/20/18 54/20/18 56/22/18
f 37/24/16 57/23/14 36/23/14
f 57/23/14 37/24/16 58/24/16
f 59/18/6 37/24/16 40/18/6
f 37/24/16 59/18/6 58/24/16
f 61/26/13 43/25/12 60/25/12
f 43/25/12 61/26/13 47/26/13
f 62/24/15 42/18/4 38/24/15
f 42/18/4 62/24/15 63/18/4
f 58/24/17 62/24/17 57/23/17
f 62/24/17 58/24/17 59/18/17
f 62/24/17 59/18/17 63/18/17
f 63/18/17 59/18/17 64/25/17
f 63/18/17 64/25/17 60/25/17
f 60/25/17 64/25/17 61/26/17
f 36/23/14 62/24/15 38/24/15
f 62/24/15 36/23/14 57/23/14
f 64/25/11 47/26/13 61/26/13
f 47/26/13 64/25/11 46/25/11
f 63/18/4 43/25/12 42/18/4
f 43/25/12 63/18/4 60/25/12
f 64/25/11 40/18/6 46/25/11
f 40/18/6 64/25/11 59/18/6
f 48/27/19 55/20/20 56/22/19
f 55/20/20 48/27/19 44/28/20
f 48/27/19 54/20/21 45/28/21
f 54/20/21 48/27/19 56/22/19
f 54/20/21 41/18/22 45/28/21
f 41/18/22 54/20/21 52/18/22
f 51/15/23 33/14/24 34/29/23
f 33/14/24 51/15/23 49/14/24
f 52/18/22 34/29/23 41/18/22
f 34/29/23 52/18/22 51/15/23
f 50/15/25 39/18/26 35/29/25
f 39/18/26 50/15/25 53/18/26
f 53/18/26 44/28/20 39/18/26
f 44/28/20 53/18/26 55/20/20
f 50/15/25 33/14/24 49/14/24
f 33/14/24 50/15/25 35/29/25

